<svg id="_404" data-name="404" xmlns="http://www.w3.org/2000/svg" viewBox="0 0 2658.62 1583.53"><defs><style>.cls-1{fill:#fff;}.cls-2{fill:#8380fe;}.cls-3{fill:#bab8fe;}.cls-4{fill:#8480fe;}.cls-5{fill:#837ffe;}.cls-6{fill:#6b67ea;}.cls-7{fill:#6068a3;}.cls-8{fill:#fb8cfe;}.cls-9{fill:#6a66ea;}.cls-10{fill:#837ffd;}.cls-11{fill:#a1a1ff;}.cls-12{fill:#fa78fe;}.cls-13{fill:#f0cccd;}.cls-14{fill:#827efc;}.cls-15{fill:#f1cccd;}.cls-16{fill:#fdd082;}.cls-17{fill:#f7caca;}.cls-18{fill:#edc8cb;}.cls-19{fill:#fdd0fe;}.cls-20{fill:#6c68eb;}.cls-21{fill:#f99cfd;}.cls-22{fill:#fdcffe;}.cls-23{fill:#57609d;}.cls-24{fill:#565f9d;}.cls-25{fill:#bcbaf9;}.cls-26{fill:#58619f;}.cls-27{fill:#f1edfe;}.cls-28{fill:#fb8dfe;}.cls-29{fill:#f3eefe;}.cls-30{fill:#efcbcc;}.cls-31{fill:#eaba6a;}.cls-32{fill:#fb9bfe;}</style></defs><path class="cls-1" d="M1652.34,401.63c-13.68-67.66-50.13-97.56-118.88-97.52-69,.05-107.24,26.48-121.34,86.84-12.15,52-11.29,104.43,3.51,156,10.2,35.46,32.51,60.85,68.57,71.79,26.65,8.07,54,7.77,81.38,3.3,43.83-7.16,71.05-32.47,82.5-75C1661,498.89,1662.19,450.41,1652.34,401.63Zm-85.85,129.25c-3.91,18.44-12.8,34.07-35.54,33.81-23-.27-29.82-17.19-34.64-35-5.86-21.7-5.51-44.09-5.29-66.36,0-22.26-.52-44.57,4.9-66.44,4.56-18.53,12.54-34.94,34.68-35,20.48,0,30.9,14.11,34.89,32.29C1575.39,439.56,1576,485.35,1566.49,530.88Z" transform="translate(-160.82 -149.19)"/><path class="cls-1" d="M1378.48,537.34a79.53,79.53,0,0,1,0-21.52c2.35-16.84-3.77-24.31-21.09-21.36-14.19,2.39-18.66-3.69-18.1-17.83,1-25.91.31-51.87.31-77.82V353.46c0-49.35,0-48.31-49.09-49.87-20.22-.61-32.81,6.08-45.22,21.61-35.11,43.88-70.14,88.11-109,128.51-26.21,27.26-33.11,56.51-30.21,91.75,1.05,12.32,4.73,16.06,16.63,15.88,38.19-.52,76.47,1,114.57-.69,20.79-.91,27.26,4.9,26.48,26-1.39,39.32-4,32.72,32.94,33,41.18.34,41.66.08,42.57-42.58.26-12,3.56-18,15.93-15.88C1374.79,564.55,1381.26,556,1378.48,537.34Zm-125.6-42.83c-22-.18-44.05-.09-71-.09,27.56-32.42,52.12-61.37,76.73-90.36,1.52.57,3.08,1.13,4.6,1.65,0,26.17-.05,52.34,0,78.51C1263.26,491.34,1260.13,494.55,1252.88,494.51Z" transform="translate(-160.82 -149.19)"/><path class="cls-1" d="M1955.92,518.51c2.38-17.62-2.13-27.95-22.66-24.09-13.58,2.52-17.23-4.12-16.79-17,.82-25.91.26-51.87.26-77.82V352.07c0-48,0-47.13-48.35-48.35-18.92-.52-31.77,4.78-43.83,19.83-34.68,43.23-69.1,87-107.42,127-26.3,27.47-35.5,56.59-32.37,93,1.21,14.36,5.59,18.14,19.18,17.88,37.45-.74,75,1,112.4-.74,21.23-1,27.13,5.81,26,26.47-1.73,32.64-.43,32.68,30.69,32.68,42,0,42.44,0,43.4-41.92.26-11.59,3-18.75,15.62-16.58,21.49,3.65,26.09-7.29,23.83-25.52A69.31,69.31,0,0,1,1955.92,518.51ZM1841.6,487.09c-.08,8.37-7.25,7.37-12.8,7.37-21.4.09-42.79.05-69.27.05,28.3-33.29,53.21-62.63,82.2-96.74C1841.73,431.14,1842,459.14,1841.6,487.09Z" transform="translate(-160.82 -149.19)"/><path class="cls-2" d="M1279.08,1062.22c13.21-9.7,25.5-21.89,44.42-14.72,17.92,6.8,27.71,23.31,24.12,43.06-3.2,17.66-6.78,35.29-11.28,52.66-4.18,16.06,1.15,23.56,17.55,25.89,20.6,2.93,41,7.32,61.46,11.31,12.19,2.38,23.41,7.15,20.19,22.31-3.11,14.59-13.88,15.63-27,12.53-21.67-5.13-43.75-8.51-65.47-13.45-12-2.72-18.58-1.32-20.86,12.9-4.32,26.92-10.2,53.61-16.19,80.22-3,13.46.91,19.86,14.88,22.11,21.27,3.43,42.19,9,63.44,12.49,13.94,2.32,24.69,7.77,21.57,23.19s-16.75,13.47-28.23,11.42c-22.63-4-45.4-7.78-67.58-13.68-12.32-3.27-15.44,1.7-17.36,11.55-4.27,21.84-9,43.6-13,65.49-3.4,18.58-13.8,30.1-32.64,31.92-18,1.73-31.31-7.32-36.38-24.14-2.63-8.74-8.81-10.19-14.38-14,8.67-11,12.5-23.75,15.17-37.35,19.64-100,40.06-199.8,59.89-299.75C1273,1076.55,1273.17,1068.38,1279.08,1062.22Z" transform="translate(-160.82 -149.19)"/><path class="cls-3" d="M408.7,1724.12c-14.24-6.34-29.4-10.54-42-20.56-7.46-5.94-16.9-10.69-13.87-21.9,3.15-11.65,13.78-13.43,24.23-14,4.91-.24,9.84,0,17,0-6.14-12.23-16.65-18.68-20.51-29.7-2.65-7.56-7.24-14.92-.84-22.15,5.73-6.47,13-4,20.11-1.7,3.88,1.27,8.15,3,12.95-1.31-8-8.55-18.13-13.59-28.14-18.88-7.43-3.93-17.21-6.17-16.47-17.47.69-10.55,8.16-16.92,16.69-20.94,7.51-3.54,16.07-4.85,25.61-7.54-8-15.71-22.81-21.58-36.38-28.87-9.51-5.1-20-8.83-28.61-15.08-17.28-12.46-19.89-31.63-7.75-46.82,14-17.57,31.23-19.72,49-6.33,17.58,13.25,27.84,32.16,36.85,50.89,6.34-1.89,8-4.89,8.92-8.51,3.26-13.19,9.4-23.82,25.19-19.73,14.71,3.82,26.44,12.11,27.11,29.38.62,15.76,1.52,31.6-5.84,51.9,10.68-10.66,13.32-22,24.15-25.25,25.74-7.78,46,6.92,46.91,34.26.44,13.06-.58,25.84-4.69,38.3-30.13,17.35-30.54,17.88-15.15,53.77,4.33,10.1,2.78,14.3-8.37,15.83-23.13,3.17-25.1,8-12.23,27,4,5.85,10.26,10.3,11.08,18.1-7.68,13.33-23.06,3.63-32.78,11C456.83,1726.46,432.37,1732.84,408.7,1724.12Z" transform="translate(-160.82 -149.19)"/><path class="cls-4" d="M1794.57,1424.18c-6.57.11-10,4.81-13.83,9.16-11.78,13.23-26.13,18-42.61,10.1-16.1-7.76-23-21.74-20.78-39.16,5.93-47.78,12.56-95.47,18.73-143.22,8.11-62.7,16.28-125.4,23.93-188.17,2.3-18.94,6.7-36,27.79-41.55,20.81-5.48,32.68,1.62,46,25.78,6.63,13.29,2.1,26.92.27,40.08-13.88,99.59-25.36,199.49-39,299.11C1793.72,1405.71,1795.81,1414.92,1794.57,1424.18Z" transform="translate(-160.82 -149.19)"/><path class="cls-5" d="M1132.07,1412.9c-26.61,13.35-33.67,37.09-34.23,64.28-6-24.67-13.39-48.48-33.63-66-3-2.59-2.64-8.05-2.78-12.42,9.89-60.3,23.25-119.93,35.1-179.85a30.84,30.84,0,0,1,6.13-13.61c13-10.14,25.84-5.71,38,1.44,12.92,7.57,26.59,10.21,41.35,9.52,10.31-.48,12.62-4.75,7.83-13.58,5.29-51.78,18.2-102.11,28.72-152.89l52.62,11.51c-6.27,14.67-9.4,30.16-12.58,45.71-18.35,89.7-35.12,179.71-53.81,269.34-2.88,13.81-7.26,24.8-25.16,22.63-22.88-2.78-29.24-9.88-25.06-32.75,6.48-35.46,14.06-70.71,20.92-106.1,1.33-6.9,4.38-13.77,1.59-22-8.6,4.28-7.77,12.74-9.13,19.54-7.79,38.87-16.12,77.64-23,116.71C1142.66,1387.69,1141,1401.63,1132.07,1412.9Z" transform="translate(-160.82 -149.19)"/><path class="cls-3" d="M1066.46,1399.76c0,6.7,1.27,14.36,7.06,17,27.86,12.61,24.66,37,24.32,60.45q-4.75,37.11-9.52,74.25c-23.15,10.07-46,1.93-69-.92a12.47,12.47,0,0,1-5.3-3.91c3.64-14.46,10.53-27.88,18.06-40.32,9.86-16.3,9.08-30.28-.73-45.63-5.68-8.89-9.51-18.93-14.64-28.5-4.32,3.71-2.48,8.69-4.5,12.38-11.15,34.72-24.14,68.5-47.46,97.35-5.39,6.67-9.38,14.49-19.25,15.36-16.08-5.11-34.94-6-40.8-26.74,30.14-51.93,27.64-109,25.69-165.82-1.08-31.37,6.7-61.24,11.8-91.59,8.92-10.53,11.35-.17,11.76,4.92,5,61.55,46.87,89.83,98.13,109.86C1058.29,1390.29,1064,1393,1066.46,1399.76Z" transform="translate(-160.82 -149.19)"/><path class="cls-3" d="M2020.06,1481.6c-7-7.11-22.4,1.6-25.36-13.3,2.63-5.47,1.84-11.38,1.34-17-1-11.48,3.09-18.72,13.77-23.88,30.19-14.59,52.87-37,65.9-68.19,6.09-14.53,16.68-18.75,31-16.87,10.69,1.4,21.6,2.13,32,4.37,16.93,3.64,32.51,1.65,47.93-5.34a8.09,8.09,0,0,1,5.54,4.51c5.58,16.76,2.59,34,3.05,51.09.47,17.85-.36,35.7,4,53.3,2.08,8.36,3.58,17.3-6.76,22.24-27.1,7.22-54.3,14.1-82.09,18.4-8.77,1.33-17.58,1.18-26.4,1.06C2062.16,1491.84,2039.77,1494.92,2020.06,1481.6Z" transform="translate(-160.82 -149.19)"/><path class="cls-3" d="M2579,1646.72l-19.72,20.94c10.11,0,18.21-.07,26.3,0,8.72.1,15.47,4.13,18.38,12.21,3.14,8.74-2.15,14.82-8.58,20.14-15.08,12.45-33.3,18.08-51.41,24-22.36,8.69-45.53,2.63-68.27,3.78-8.33-6.86-22,.32-28.76-10.8-1.26-10.55,7.43-16.55,11.46-24.68,8-16.11,5.94-20.15-11.24-21-18.1-.89-19.24-2.72-11.4-18.3,14.16-28.12,10.25-39.21-19-53.75-12.25-21.07-12.91-42.93.66-62.81,13.36-19.58,36.13-19.94,57.27-2.14-.63-6.75-.7-12.49,2.82-17.27,15.33-.57,12.48,12.84,14.55,20.76,10.24,39.23,29.79,71.39,65.09,93C2564.81,1635.51,2575.75,1636,2579,1646.72Z" transform="translate(-160.82 -149.19)"/><path class="cls-5" d="M1933.32,1446.21c-31.69,27-41.72,26.92-68.7-2.88-5.64-6.24-13.79-3.33-18.64-8.9,11.19-10.27,15-23.39,16.79-38.15,8.2-66,17.39-131.93,25.35-198,1.12-9.31,2.05-18.59,9.45-25.55,22.16-4.16,43.53-14.89,67-8.12,4.88,6.15,5.08,13.36,4.16,20.59-10.89,85.73-21.31,171.53-33.7,257.07A13.46,13.46,0,0,1,1933.32,1446.21Z" transform="translate(-160.82 -149.19)"/><path class="cls-6" d="M1933.32,1446.21c-9.75-15.49-.4-31.14,1.3-46,8.36-73.11,19.1-146,28.86-218.91.67-5,.22-10.08.29-15.12,6.32-6.8,13.55-6.16,21.12-2.57,7.81,8.05,4.34,17.54,3.18,26.62q-12.25,95.4-24.47,190.79c-2.93,22.78.52,25.58,23.16,18.92,37.29-11,61.41-36.34,69.28-73.25,11.85-55.55,22.07-111.7,16-169.14a24.78,24.78,0,0,1,.71-8.57c1.87-5.07,5.34-7.72,10.91-7.15,17.21,9.82,19.78,27.68,22.52,44.39,2.1,12.79,6.36,23.3,15.93,31.79,6.95,18.78-.63,37-3,55.18-5.44,42.6,2.1,54,44.23,62.5,7.56,1.51,16.07.84,21.72,7.82-19.78,24.38-44.86,8.09-66.29,5.87s-33.94-2.37-42.27,21.18c-7.94,22.48-25.33,40.83-46.74,51.66-20.21,10.23-34.85,21.94-35.07,46.09-.41-9.14-.83-18.27-1.26-27.75C1972.63,1442.18,1953.41,1449.09,1933.32,1446.21Z" transform="translate(-160.82 -149.19)"/><path class="cls-7" d="M2547.47,1732.53c-5,.27-10.1.16-15.15.16l-2210.88,0H297.91c-.07-1.87-.15-3.74-.23-5.6,36.72-5.7,74.13-.06,111-3l77.92-.4c14.57-2.15,29.22-3.69,43.73-6.27,18.35-.56,36.7-.36,55,0,7.7.15,15.71.07,21.55,6.62q145.56.35,291.12.64c4.76,0,10.37,1.39,13-4.82,10.35-6.33,21.23,5,31.62-1a391.67,391.67,0,0,1,68.32-.17c36.06,6.79,72.65.16,108.81,4.25,6.44.61,12.87,1.76,19.3,1.77q422.13.12,844.25,0c3.61,0,7.21-.31,10.81-.48,13.94-2.4,28.58-.37,41.92-6.63,1,0,1.94,0,2.9.07l-2.12,2c5.8,9.24,13.7,4.59,21.12,3.19l0,0a5.78,5.78,0,0,1-1.29-1.38,6.4,6.4,0,0,1-.72-1.46c.73.17,1.45.36,2.18.55a9.8,9.8,0,0,0,7.07.57,40.49,40.49,0,0,0,5.28-1.93c40.68-3.17,81.34-2.53,122-.45a22.74,22.74,0,0,0,5.82,1.58c9.92,1.37,19.59-3.51,29.49-3.09h2.44c41.2,0,82.36.18,123.54.15q36.48-.53,72.95,0c14.8,1.13,29.32,4.14,43.92,6.63H2544c2.51,1.11,6,1.54,7.31,3.47C2553.62,1730.94,2550.43,1732.37,2547.47,1732.53Z" transform="translate(-160.82 -149.19)"/><path class="cls-8" d="M607,1724.07l-77.29-.08c-5.06-4.35-14.23-.22-17.41-8.44a53.36,53.36,0,0,1-20.7-24.13c-3.14-7.21-7.57-14.25-.6-21.84,5.81-6.33,12.12-6.32,19.53-3.12,3,1.3,6.82.81,13.21,1.41-11.59-18.79-22.11-36.3-12.25-56.57,5.42-11.16,17.18-8.28,26.93-9.18l12.68,8.28c-6.39-20.11-2.38-35.63,14.84-44,15.34-7.44,14.82,11.27,23,17.19,8.66-9,11.68-21.61,21.56-29.57,12.16-9.8,23.5-11.52,33.7,1.33,10.67,13.45,4.4,24.8-7.68,32.76-11.78,7.77-27,10.46-35.39,24.63,7.94,6.78,25.57,5.12,22.83,20.42-2.18,12.18-18.56,12.25-26.39,23.17,7.64,1.68,18.59-6,21.46,4.77,2.93,11-8,17.42-13.82,27,4.8.83,8.36.91,11.51,2.1,5.81,2.18,14,2.82,14.13,11,.14,7-5.41,11.31-11.31,14.71C615.13,1718.36,611.1,1721.32,607,1724.07Z" transform="translate(-160.82 -149.19)"/><path class="cls-9" d="M1066.46,1399.76c-30.64-12.16-61.33-23.5-85.26-48.36-19.39-20.15-32.1-42-31.43-70.44.11-4.38-.44-8.63-3.9-11.88a5.94,5.94,0,0,1-4.24-4.26c3.1-6.63,4.57-11.48-6-12.87-16.33-2.15-32.51-5.66-48.62-9.18-11.12-2.44-22.89-4.41-28.57-16.52,8.56-8.2,18.63-4.88,28.35-3.58,30.52,4.08,44.61-6.15,52.63-36,5.09-18.92,1.69-40.24,15.63-56.71,10.2-2.94,13.17,5.56,17.24,11.46,5.21,7.56,12.87,12.57,18.67,19.44a21.66,21.66,0,0,1,2.53,6.23c1.66,22.71-6.6,44-10,65.94-7,46,8.75,82,46.84,108.29,14.9,10.29,18.91,8.78,23.24-9,8.88-36.4,13.61-73.66,22.54-110.06,2.35-9.58,3.79-20.53,17-22.21,5-.12,9.55.66,12.63,5.12Q1086.12,1302.49,1066.46,1399.76Z" transform="translate(-160.82 -149.19)"/><path class="cls-6" d="M1898.55,1174.76c-5.74,42.33-11.64,84.64-17.16,127-4.78,36.74-8.64,73.61-14,110.27-1.64,11.3-3.51,25.3-21.42,22.39-17.75-.33-34.45-5.93-51.41-10.24-19.27-16.17-3.66-35.24-2.29-51.81,4.33-52.41,12.74-104.48,19.76-156.66,7.12-52.88,14.47-105.73,21.72-158.59l8.69,1c16,3.48,14.6,15.55,13,27.2-10.57,78.52-19.75,157.22-30.46,235.72-2.53,18.55-5.18,37.1-6.69,55.76-.75,9.25.67,18.18,12.46,18.77,10.65.53,12.55-8,13.72-16.1,8.32-57,14-114.38,22.39-171.37,2.17-14.62.38-30.53,10.63-43.3C1887.69,1161.47,1894.59,1165,1898.55,1174.76Z" transform="translate(-160.82 -149.19)"/><path class="cls-10" d="M1881.68,1165.41c-9.5,23.37-9.25,48.58-12.86,72.93-7.32,49.41-12.18,99.19-18,148.83-1.61,13.76-9.75,18.4-22.53,16.23-11.74-2-19.4-3.81-17.13-21.28,11.51-88.46,21.71-177.09,34.7-265.37,1.87-12.68,1.59-25.64,4.86-38.25,2.18-8.43-1-15.43-8.3-20.41l51.87,7.66c5.44,19.22-3.36,37.46-4.19,56.29-.5,11.14-2.38,22.38-3.47,33.61C1886,1159.44,1884.71,1162.86,1881.68,1165.41Z" transform="translate(-160.82 -149.19)"/><path class="cls-11" d="M2579,1646.72c-51.53-18.74-80.55-56.37-92.08-109-1.64-7.49-5-14.6-7.61-21.89-5.3-3.4-7-9.07-8.68-14.52-23.45-77.59-80-120.47-153-146.34-32-11.35-64.78-19.89-97.86-27.4-9.05-2-18.79-2.71-24.7-11.56-1.54-7-4.17-14.53,6.68-16.56,52.07,8.32,102.46,22.22,151.08,42.92,63.27,26.95,109.66,70.3,135.37,134.67,11.73,10.2,13.88,24.91,17.38,38.64,9,35.27,23.51,67.55,47.76,95.07l.13.12c10.74,7.15,26.34,4.59,34.32,17.22,35.57,15.45,73.72,17.68,111.52,21.7,5.71.61,11.48.6,17.22.94,7.19.43,13.42,3.21,12.74,11.23-.73,8.58-7.7,8.58-14.71,8.06C2668.63,1666.66,2623.24,1660.2,2579,1646.72Z" transform="translate(-160.82 -149.19)"/><path class="cls-12" d="M2119.65,1217.33c-9.88-1.11-17.82-3.75-17.53-16.33.48-21.18-7.43-40.07-17.32-58.28-.84-7.55,4.21-11.39,9.47-15.11,27-18.18,38.1-46.09,45.06-75.86,3.16-13.48-1.72-26.18-14.71-33.14-13.68-7.34-23.38,1.34-31.89,10.6-18.22,19.81-32.44,42-39.52,68.38a10,10,0,0,1-8.35,5.27c-8.29-1.33-13.09-6.61-16-14-2.69-25.56-7.21-51.35,8.36-74.89l9.67-13.05c4.05-8.86,11.27-13.34,20.61-14.92,10.21,2.26,18.6-4.37,28.09-5.8,20.79,5.21,43.6,7.36,50.7,33.33,21.34,40.79,11.65,84.6,11,127.16-.36,24.6.91,48.42,6.78,72.13C2152,1226.75,2141.1,1227.86,2119.65,1217.33Z" transform="translate(-160.82 -149.19)"/><path class="cls-6" d="M1132.07,1412.9q14-73.71,27.94-147.41c1.88-9.84,4.89-19.48,6.26-29.37,1.22-8.82,6.38-10.55,13.61-9.61,10.41,1.35,7,7.87,5.65,14.46-8.73,42.74-16.84,85.6-25.71,128.3-2.48,11.92-4.41,20.86,12.77,22.07,11.74.83,21.41,9.17,25.4-12.1,18.57-99.08,39.5-197.72,59.28-296.57,1.88-9.4,2.06-18.94,13.94-21.42l7.87,1c-1.71,44.46-15.1,86.92-22.9,130.32-12.6,70.06-28,139.61-41.78,209.47-2.16,11-4.87,19.49-18,19.3C1174.51,1421.75,1153.46,1416.06,1132.07,1412.9Z" transform="translate(-160.82 -149.19)"/><path class="cls-3" d="M2553.35,1610.8c-23.29-13.48-34.62-36-42.95-59.78-8.49-24.27-14.88-49.26-22.19-73.93,19.15-4.65,38.37-12.18,44.67,18.14,2.42,11.69,9.27,4.44,12-2.08,6.56-15.58,16.47-28.5,29-39.7,11.8-10.5,24.78-14.19,39.82-8.52,14,5.28,20.39,17.23,20.1,30.47-.33,15-8.58,27.37-23.48,33.36-21.3,8.58-42.45,17.23-56.75,36.89,6.19,8.89,15.28,3.5,22.27,6.33,10.91,4.42,18.4,11.29,19.88,23.25,1.41,11.39-8,14.21-15.55,18C2570.56,1598,2561.26,1603.32,2553.35,1610.8Z" transform="translate(-160.82 -149.19)"/><path class="cls-11" d="M820,1179.43c-82-4.43-156.47,16.48-224.66,62.89-82.06,55.86-173.4,86.9-272.49,94.81-1.44.12-2.95.62-4.3.35-9.43-1.93-25.52,7.9-26.74-8s15.61-10.81,25-11.4c88.83-5.6,171-32,246.69-78.43,48.5-29.76,95.78-61.65,153.6-71.85,43-7.58,86.06-7.86,129.35-5.67,5.62,2.64,15.77-.5,14.88,10.52-.87,10.79-9.69,8-16.2,8C836.7,1180.53,828.22,1181.88,820,1179.43Z" transform="translate(-160.82 -149.19)"/><path class="cls-5" d="M1127.63,1031.91c4.82-.91,9.65-.12,14.48-2.89,33-18.91,48.19-14.34,64.49,18.73,3,20.45-5.22,39.26-8.8,58.71-4.48,24.42-9.21,48.79-13.63,73.23-37,13.54-53.42,10.64-72.91-12.83-4.16-21.22,5-40.76,8-61.07C1122.91,1081.25,1131.62,1057.32,1127.63,1031.91Z" transform="translate(-160.82 -149.19)"/><path class="cls-4" d="M820,1179.43c7.66-.29,15.33-.47,23-.92,5.27-.31,12.28,2.47,14.66-4.57,3.32-9.8-8.08-7.23-11.19-11.84,6.76-1.35,13.37-.87,16.43-10.34,14.07-43.59,14.43-43.47,62.24-38.51,10.36-4.78,19.94-.64,29.63,2.55,4.75,4,8.38,8.38,4.2,14.91-10.64,16.83-9.38,36.6-13,55-7.22,36.48-26.13,49.84-62,42.41-8.26-1.72-16.95-1.34-25.44-1.92-4.89-3.14-6.82-9.71-5.79-13.22C861.88,1181.73,840.37,1181.3,820,1179.43Z" transform="translate(-160.82 -149.19)"/><path class="cls-4" d="M2119.65,1217.33c14.71-2.34,30.52,6,44.41-4.53,1.4,1.59,2.51,4.1,4.23,4.64,39.36,12.36,37.87,42.06,31.88,73.91-.48,2.53,1,5.42,1.6,8.15-6.23,4.89-3.59,11.8-4.11,18,4.9,11.3,1.5,19.7-9,25.64-1.21.07-2.42.2-3.62.37-14.12-1.71-28.43-2.49-42.31-5.36-24.93-5.14-36.81-30.35-30.62-61.72C2116,1256.92,2119.81,1237.37,2119.65,1217.33Z" transform="translate(-160.82 -149.19)"/><path class="cls-13" d="M2020.06,1481.6l64.84,4.91c11.12,15.56,6.58,33.43,5.91,50.06-1.77,44.4-6.78,88.51-21.66,130.87-9.75,7.45-20.37,8.27-31.64,4.08,3.56-28.11-3.66-55.5-6-83.19C2028.57,1552.68,2024,1517.17,2020.06,1481.6Z" transform="translate(-160.82 -149.19)"/><path class="cls-5" d="M1071.37,1033.8a152.2,152.2,0,0,1,47.61-2.1c2.9,3.46,4.33,7.6,3.46,11.91-7.56,37.57-11.74,75.84-23.17,112.62-23.08,5.51-60.3-11.59-68.06-31.22-.69-13.84-7.89-25.32-13.69-37.32-3.36-6.94-7.17-13.82-5.89-22C1025.92,1044.53,1045.27,1032.83,1071.37,1033.8Z" transform="translate(-160.82 -149.19)"/><path class="cls-14" d="M2032.88,1091.52l13.43,9.39c0,2.16,0,4.83-2,5.75-42.67,19.69-84.14,43.9-134.21,36.26-3.62-.55-7-1.4-9.42-4.42-4.9-25.45-1.64-49.69,10.9-72.53,20.24-24.18,42.77-24.83,61.18,0,6.19,8.33,13.2,9.3,21.5,10.37C2009.75,1074.83,2023.28,1078.22,2032.88,1091.52Z" transform="translate(-160.82 -149.19)"/><path class="cls-11" d="M2146.25,1013.51c-13.1-17.93-32.52-24.74-52.82-30-18.45-18.15-3.82-35.43,3-57.8-16.86,8.35-30.33-10.5-46.24,1.3-10.06-7.63-13.34-18.37-12.71-30.23.72-13.81,9.21-26.72,21.87-24.4,23.25,4.27,47.68,9.33,67.18,23.87,10.27,7.66,11.93,21.46,5.69,33.53-9,17.37-2.78,27.2,12.94,36.48C2170,980.88,2169.69,995.3,2146.25,1013.51Z" transform="translate(-160.82 -149.19)"/><path class="cls-15" d="M1015.38,1545.57c24.57-1.16,48.3,8,72.95,5.86-5.48,5.53-10.71,10.69-12.82,19-9.64,38.13-20,76.07-30.17,114.08-10.37,7.74-21.15,10.9-32.93,2.89-7.95-41.14-10-82.66-7.6-124.43C1005.23,1555.69,1007.5,1548.74,1015.38,1545.57Z" transform="translate(-160.82 -149.19)"/><path class="cls-13" d="M905.28,1534.51,945.43,1555a14.74,14.74,0,0,1-3.54,11.94c-24.37,28.7-39.87,63.92-66.86,90.7-9.56,2.6-18.07,1.54-24.4-7,6.66-42.22,15.73-83.75,35-122.39C893.94,1524.7,900.35,1527.27,905.28,1534.51Z" transform="translate(-160.82 -149.19)"/><path class="cls-16" d="M1071.37,1033.8c-21.28,7-41.31,16.24-58,31.54-7.93,1.08-11.15-5.32-15.19-9.95-9-10.36-19.73-18.54-33.42-11.64-14.37,7.24-16.87,21.68-16.06,36.74.71,13.17,11.07,25,5.26,39.06l-28.86-6.3c-.2-10.82-.67-21.64-.59-32.45.3-38.14,18.52-62.55,55.88-75.23,11.53-.81,23,4.73,34.57.3C1034.17,1014.31,1054.11,1021.34,1071.37,1033.8Z" transform="translate(-160.82 -149.19)"/><path class="cls-11" d="M905.28,1534.51l-19.69-6.23c-1.57-4.58.08-8.21,2.94-11.85,27.63-35.09,30.8-75.8,28.8-118.43-2.16-46-2.45-92.19,24.3-133.17l4.24,4.25c-12,62.56-6.85,125.94-9.6,189C935.05,1486,922,1511.56,905.28,1534.51Z" transform="translate(-160.82 -149.19)"/><path class="cls-1" d="M1378.49,713.48c0,12.69-.22,19,0,25.22.39,9.42,0,16.88-13.16,16.65-13.77-.24-12.14-9.07-12.15-17.68,0-14.41-.38-28.84.17-43.23.25-6.51-3.81-15.83,6.25-18.28,9.26-2.25,18.58-1.81,24.87,7.89s13.18,18.75,24,34c0-14.66.37-23.26-.1-31.82-.5-9.31,3-12.36,12.55-12.29,9.72.06,10.43,5,10.39,12.21-.1,18,.11,36-.11,54-.07,5.38,1.88,12.69-6.06,14.13-7.6,1.37-16.06,3.12-21.75-4.87C1396.37,739.52,1389.51,729.41,1378.49,713.48Z" transform="translate(-160.82 -149.19)"/><path class="cls-1" d="M1425.53,149.22c-26.22-.78-43.1,15.79-43.14,42.44-.09,28.17,14.54,43,42.18,42.92,25.52-.13,41.15-16.05,41.32-42.18C1466.11,166.06,1451.05,150,1425.53,149.22Zm-.52,64.45c-15.32.6-16.84-10.29-16.76-21.92.09-10.55.87-21.22,14.89-21.61,15.06-.48,17.1,10.11,16.8,22C1440,202.77,1439,213.1,1425,213.67Z" transform="translate(-160.82 -149.19)"/><path class="cls-1" d="M1199.59,699.24c-2.06-.34-4-1.67-5.93-2.54-11.92-5.29-21.26-.74-28.43,8.53-8.43,10.9-7.29,23.24-1.48,34.65,4.82,9.47,12.88,15.23,24.61,13.71,3.82-.49,7.93-5.49,11.41-.48,1.15,1.65.64,6-.81,7.63-4,4.37-8.76,2.48-13.81.7-7.53-2.65-18.93-8.61-21.54,2.36s9.81,14.27,19.06,15.87c32.48,5.61,43.57-6.62,43.62-47.45C1226.33,703.58,1226.32,703.61,1199.59,699.24Zm-8.32,36.87c-7.14-1.08-7.74-7.46-7.48-13.38.25-5.54,2.74-10.3,8.8-9.82,7,.56,8.78,6.2,8.85,12.42C1200.82,731.58,1198.66,737.22,1191.27,736.11Z" transform="translate(-160.82 -149.19)"/><path class="cls-3" d="M850.63,1650.67l24.72,5.1c24.42,8.63,42.8,25.37,58.84,44.8,5.4,6.53,9.76,14.72,2.75,23.43-10.74,11.82-16.61-7-25.92-4.11-21.13-6.52-42.1-13.68-63.48-19.32-12.74-3.37-15.79-8.93-10.89-21.17C840.65,1669.42,844,1659.28,850.63,1650.67Z" transform="translate(-160.82 -149.19)"/><path class="cls-1" d="M1595.44,172.44c-12.63,2.17-27.13-2.39-36.54,3-13.11,7.51-3.87,24.65-6.12,37.37a17.45,17.45,0,0,0,0,2.17h.13V245c0,8.38,5.07,10.81,12.58,11.11,7.81.31,12.8-2.12,12.07-10.72-.91-11.28,2.17-13.45,14.36-11.8,17.45,2.3,25.35-9.81,26.22-26.6C1619.18,186.32,1610,169.92,1595.44,172.44ZM1586.15,216c-6.77-.13-8.42-6.38-8.51-12.46.09-6.68,1-13.76,9.38-13.67,7,.13,8.46,6.38,8.42,12.41C1595.44,208.89,1594.57,216.14,1586.15,216Z" transform="translate(-160.82 -149.19)"/><path class="cls-17" d="M1014.91,1005.87c-11.66,15.71-23.11,7.75-34.57-.3q0-13,0-26c-1.53-7.94-8.2-13.23-10.65-20.69-2.86-8.76-4.05-17.47,6.88-21.18,6.56-2.23,7.41-7.48,10.23-12.32,9.16-15.69,31.91-14.26,41,2.17-1.48,20.16,6,41.7-11.35,59.44C1013.11,990.48,1015.3,999.43,1014.91,1005.87Z" transform="translate(-160.82 -149.19)"/><path class="cls-1" d="M1066.1,678.85c-9.59-5.49-20.77-5.19-28-5.51-31.55-.4-31.83-.12-31.85,28.61,0,13.69.35,27.39-.07,41.07-.29,9.62,4.25,12.29,13.11,12.28s14.37-2.65,12.92-12.23c-2.5-16.51,6.36-19.06,20.08-18.61,12.26.4,20.51-6.69,22.83-18.83C1077.11,695.34,1076.42,684.75,1066.1,678.85ZM1042,707.29c-5.87.79-9.54-1.38-9.57-7.87,0-4.62,1.07-8.7,6.61-8.66,5.34,0,9.41,2.47,10.46,8C1049.83,704.38,1046.64,706.66,1042,707.29Z" transform="translate(-160.82 -149.19)"/><path class="cls-3" d="M1015.12,1688.88c9.32-6.67,20.26-2.1,30.22-4.34,15.69,4.76,31.55,9,47,14.42,12.1,4.21,24.65,8.75,27.42,24-5.76,7.9-14.35,5.61-21.79,5.17-29.07-1.73-58.56,4.86-87.26-4.17C1002,1711,1003.25,1699.26,1015.12,1688.88Z" transform="translate(-160.82 -149.19)"/><path class="cls-1" d="M1972.57,732.87c-.48-5.71-.07-11.5-.1-17.26,0-9.35-.41-18.72.09-28s-4-13-12.49-13.72c-9.7-.8-10.13,5.65-10.16,12.57,0,7.13-.43,13.34-10.79,9.91-13.07-4.33-22.83,1.16-28.44,12.82-6.34,13.18-5.6,26.91,3,38.85,7.15,9.88,17.26,12.14,28.75,6.76,2.44-1.14,5.83-2.14,8.14-1.35C1971.32,760.6,1974,749.2,1972.57,732.87Zm-22.81-5c-.74,6.08-4.18,12-10.49,11.26-7.19-.81-10.2-7.27-9.45-14.46.63-6.15,3.92-10.48,10.45-11.71C1947,715.75,1950.63,720.65,1949.76,727.92Z" transform="translate(-160.82 -149.19)"/><path class="cls-1" d="M1612.6,711.57c2.89-10.86-7.5-30.09,5-35.82,13.7-6.26,32.27-2.12,48.72-2,6.54,0,7.8,5.14,7.57,10.68-.21,5-2.79,7.94-7.84,8.33-3.56.27-7.22-.18-10.72.39-5.71.93-15.12-3.39-15.65,6.06-.58,10.16,9.12,6,14.72,7,5.81,1.06,14-2.19,14.47,8,.45,9.93-7.08,9.68-13.4,9.06-12.94-1.26-18.91,3.48-17.08,16.86,1.48,10.81-2.76,15.51-14.34,15.27-12.23-.25-11.53-7.88-11.5-16C1612.63,730.83,1612.6,722.23,1612.6,711.57Z" transform="translate(-160.82 -149.19)"/><path class="cls-1" d="M1288.16,732.6c17.34-.53,21.35-7.58,12.06-22.56s-24.11-17.82-39.72-14.31c-14.42,3.24-24.07,12.26-24.75,28.55-.66,15.72,5.94,26.9,20.89,31.29,16.33,4.79,31.84,3.66,42.66-11.67-11-14.34-25.59,4.65-37.73-6.93,3-2.22,4-3.62,5-3.68C1273.78,732.9,1281,732.82,1288.16,732.6Zm-27.41-16.91c0-3.22,4.68-5.84,10.46-5.84s10.47,2.62,10.47,5.84-4.69,5.85-10.47,5.85S1260.75,718.92,1260.75,715.69Z" transform="translate(-160.82 -149.19)"/><path class="cls-11" d="M1027.87,927.55c-20.76-12.77-28.64-10.31-36.06,11.75C990.22,944,988,944,984,942.78c-18.65-5.84-13.63,5.41-9.75,14.36,3.15,7.28,12.42,12.62,6.1,22.43-38.65-17.26-45.94-46.83-18.67-72.87,6.77-6.46,13.74-6.9,21.55-6.33,9.32.68,18.46,1.59,27.68-1.45,8.76-2.89,17.34-2.42,22.76,6.48C1039.19,914.48,1035.63,921.68,1027.87,927.55Z" transform="translate(-160.82 -149.19)"/><path class="cls-1" d="M1148.72,723.68c0-12.31-2.92-23.27-16.43-27-15-4.16-29.9-4.56-42.62,6.56-1.93,1.69-3.72,4.88-3.6,7.28.24,4.74,4.91,3.83,8.15,4.85,9.37,2.95,17.13-8.47,28.14-2.16-7.37,9.08-17,7.18-24.81,9.88-9.54,3.31-14.72,8.2-14,18.55.74,11,8.88,15.12,17.55,15.57,13.87.73,27.4-5.48,41.81-2.65,5.69,1.12,5.75-5,5.8-9.33C1148.77,738,1148.74,730.86,1148.72,723.68Zm-34.34,20.39c-3.85.41-7.24-1.81-7.26-5.75,0-5.18,5-6.07,8.75-7.75,4.1-1.83,6.38,0,7.83,2.6C1123.05,740,1119.91,743.48,1114.38,744.07Z" transform="translate(-160.82 -149.19)"/><path class="cls-1" d="M1833.93,724.86c5.51-7.48-10.62-29.77,12.87-26.28,15,2.23,30.51-13.49,44.07,2.14,7.2,8.3,7.26,18.31,7.07,28.43-.11,5.73,0,11.47-.26,17.19-.37,7.72-5.78,8.88-12,8.84-6.07,0-11.77-.57-12.29-8.48-.23-3.57.3-7.24-.32-10.72-1.27-7.07,4.29-18.87-6.39-19.84-11.36-1-7,11.68-9.28,18.37-2.79,8.28,3.25,22.44-14,20.47-15.49-1.76-7.28-14.2-9.34-22C1833.48,731,1833.93,728.73,1833.93,724.86Z" transform="translate(-160.82 -149.19)"/><path class="cls-6" d="M1183.94,1177.66c-8.83-10.22-1.93-20.72.11-30.7,6.78-33.22,11.11-67,22.55-99.2l12,2c7.71,16-1.6,30.46-4.36,45.37-6.74,36.45-14.43,72.72-21.74,109.07-7.39,6.9-14.74,5.64-20.31-1.68-5.41-7.13,1.36-11.79,5.58-16.35C1180.18,1183.52,1183.22,1181.48,1183.94,1177.66Z" transform="translate(-160.82 -149.19)"/><path class="cls-1" d="M1510.24,171.31c-18.48-.7-34.76,13.06-35.63,30.12-.91,17.7,13.2,32.16,32.29,33.11,20.53,1,35.94-12.06,36.42-30.94C1543.75,185.46,1530,172.05,1510.24,171.31Zm-1.39,45.78c-8.46-.3-9.37-7.5-9.5-14.23-.09-6.9,1.48-12.89,9.64-14.37,7.42,1.7,11.41,6.77,11.41,13.76C1520.36,209.54,1518.49,217.49,1508.85,217.09Z" transform="translate(-160.82 -149.19)"/><path class="cls-1" d="M1512.6,725.36c-.47-17.83-15.29-31-34.64-30.84S1444,708.27,1443.86,726c-.18,18.67,15.46,32.6,35.72,31.82C1499,757.05,1513.08,743.26,1512.6,725.36Zm-33.16,14.91c-8,1.19-11.25-5.34-12.29-11.85-1.25-7.85,2.5-13.61,10.07-16.55,8.49.65,10.28,6.49,10.42,13.35C1487.78,731.75,1487.54,739.06,1479.44,740.27Z" transform="translate(-160.82 -149.19)"/><path class="cls-1" d="M1713.66,694.49c-19.93.34-32.81,13-32.64,32.18.17,18.84,14.21,31.86,33.52,31.08,20.14-.81,33.2-13.52,33-32.1C1747.32,707.39,1732.94,694.16,1713.66,694.49ZM1725,727.83c-.27,7.33-3.75,11.92-10.46,13.38-9.73-2.1-11.28-8.65-10.92-16.39.34-7.19,3.29-13.5,11-12.92C1723.57,712.56,1725.29,720.05,1725,727.83Z" transform="translate(-160.82 -149.19)"/><path class="cls-1" d="M1820.91,727.87c-2.35,7.36,5.08,24.14-4.63,24.9-15.39,1.21-31.49,8.24-47,1.89-9.94-4.07-15.37-48.65-6.81-54.9,3-2.18,8.14-2.08,12.24-1.85,6.94.38,5.93,6.27,7.16,11.07,2.38,9.35-6.83,26.34,7.35,26.77,14.75.44,7.79-16.72,9-26.3.92-7.57,2.66-12,11.23-12.06,8.23-.08,11.91,3.19,11.57,11.4C1820.72,714.52,1820.91,720.26,1820.91,727.87Z" transform="translate(-160.82 -149.19)"/><path class="cls-1" d="M1648.69,190.46c9.38,2.25,17.34,3.69,25,6.11,13.33,4.22,18.08,18.69,9.89,28.93-9.82,12.29-43.44,12.15-53.24-.4-1.55-2-3.38-5.83-2.51-7.26,3.65-6,10.16-3.58,15.6-3.79,6.86-.27,15.14,14.35,18.92,3.06,3.13-9.37-11.36-6.22-18-8.65-8.56-3.14-16.51-7.6-16.46-17.51,0-9.54,6.4-15.12,16-17.54,9.31-2.34,18.29-3.33,27.45.15,6,2.29,14,5.64,11.53,12.26-2.09,5.65-10.76,6-17.3,3.54C1660.83,187.55,1656.63,181.12,1648.69,190.46Z" transform="translate(-160.82 -149.19)"/><path class="cls-18" d="M2050.2,927c1.16-9.56-.36-22.8,15.27-9,6.82,6,15.55,6.75,24.15,2.62,4.62-2.21,9.59-4.61,13.36.79,3.63,5.21-.36,9.46-3.25,13.38-11.17,15.13-11.43,31.58-6.3,48.76-8,4.59-15,14.93-25.83,4.84-6.92-11.11-8.71-24.7-17-35.14C2054.73,944.39,2048.62,935.74,2050.2,927Z" transform="translate(-160.82 -149.19)"/><path class="cls-6" d="M1097,1157.37c3.2-42.61,15.43-83.65,22-125.67l8.65.21c10.89,7.63,9.13,17.92,6.92,29-7,35.08-13.45,70.26-20.11,105.41C1105.31,1169.78,1099.07,1167.6,1097,1157.37Z" transform="translate(-160.82 -149.19)"/><path class="cls-19" d="M1565.08,1117.82c3.84-33.34,7.5-67.33,11.86-101.23.8-6.23-.17-16.68,11-14.67,11.72,2.12,7.54,12.41,6.79,19.41-3.71,34.69-8.15,69.31-12.23,104-.81,6.87,1.15,16.63-8.91,16.43s-8-9.91-8.45-16.8C1565,1122.77,1565.08,1120.61,1565.08,1117.82Z" transform="translate(-160.82 -149.19)"/><path class="cls-3" d="M2065.18,1721.16l-.74,1.41c-2,3.39-4.12,3.89-6.48.34l0,0a10.8,10.8,0,0,0-1.29-1.38,6.4,6.4,0,0,1-.72-1.46c-1.52-4.26.35-10.24-5.6-13.17L2039,1717.7l-2.12,2c-13,13.2-27.64,10.76-42.7,4.54,15-17.1,38.7-27.13,43.37-52.74,9.08-7,19.2-4,29.12-3,.15.15.29.31.43.46C2083.77,1687,2074.16,1704.09,2065.18,1721.16Z" transform="translate(-160.82 -149.19)"/><path class="cls-1" d="M1551,757.89c-8.36.2-13.87-1.3-18.28-5.3-7.56-6.84-10.89-51.89-6.61-61.51,3.81-8.56,10.8-12.35,18-13.34,10.41-1.44,4.19,10.7,8,13.56,13.29,9.91,14.07,17.51.57,28.59-3.94,3.22-4.36,15.1,4.09,20.7,4.64,3.07,7.24,7.48,5,12.6C1559.38,758.72,1553.48,757.7,1551,757.89Z" transform="translate(-160.82 -149.19)"/><path class="cls-19" d="M1550.89,1416.17c-4,31-7.9,61.95-12.17,92.88-1,7.52-5.29,15.19-13.41,13.76-9.73-1.71-6.49-9.79-5.2-17.22,5.34-30.76,9.78-61.68,14.52-92.55.89-5.8,1.82-12.67,9.34-11.83C1552.48,1402.15,1551.86,1409.87,1550.89,1416.17Z" transform="translate(-160.82 -149.19)"/><path class="cls-20" d="M1911.62,1066c-.84,25.08-10.24,49.25-8,74.65,5.26,4,14.56,6.27,11.84,14.9-2.48,7.86-11.28,6.54-18.08,6.9a23.59,23.59,0,0,1-15.77-4.5c.23-31.27,3.91-62.07,12.69-92.17Z" transform="translate(-160.82 -149.19)"/><path class="cls-21" d="M2032.88,1091.52l-38.59-15.23c12.2-22.22,23-45.39,42.89-62.34C2031.05,1039.55,2033.3,1065.61,2032.88,1091.52Z" transform="translate(-160.82 -149.19)"/><path class="cls-22" d="M1715,1093.1c-11.61,16.07-24.73,34.77-38.57,52.93-2.68,3.51-8,2.46-11.69-.78-4-3.52-3.55-7.25-.58-11.3,11.86-16.14,23.49-32.45,35.52-48.45,2.46-3.28,5.91-6.79,11-4.5C1714.21,1082.63,1715.85,1085.66,1715,1093.1Z" transform="translate(-160.82 -149.19)"/><path class="cls-19" d="M1662.7,1470c1.73,5-.62,8.32-5,10.14-6,2.5-9.83-.88-11.55-6.1-6.46-19.59-12.65-39.28-18.72-59-1.52-4.93,1.19-8.86,5.77-9.8,5.77-1.19,10,3.3,11.56,7.77C1651.2,1431.9,1656.79,1451,1662.7,1470Z" transform="translate(-160.82 -149.19)"/><path class="cls-23" d="M2819.44,1731.8c-5.68.27-11.36.77-17,.78-46,.06-91.94,0-138-4.5h155Z" transform="translate(-160.82 -149.19)"/><path class="cls-19" d="M1431.32,1438.26c4.12-13.6,8.41-27.89,12.79-42.15,1.58-5.11,4.32-9.78,10.51-7.76,5.47,1.78,7.43,7.23,6.1,12.32-4.13,15.79-8.79,31.46-13.65,47-1.32,4.25-4.83,7.77-9.76,5.8C1430.84,1450.94,1430.64,1445,1431.32,1438.26Z" transform="translate(-160.82 -149.19)"/><path class="cls-1" d="M1737.41,171.6c0-.19-.13-4.5,0-8.8.53-13.87,10.83-12.87,18.41-9.42,8.82,4,4.69,14,4.33,21.39-.54,11.2,1.8,24.17-8.26,32-5.28,4.13-11.22-.82-12.29-7.47C1738.37,191.56,1738.3,183.6,1737.41,171.6Z" transform="translate(-160.82 -149.19)"/><path class="cls-19" d="M1479.19,1105.09c-4.59,7.65,6.59,23.8-8.74,23.86-13.88.06-9.51-15.65-8.88-24.63.67-9.58-6.87-26.89,6.54-27.34C1484.87,1076.42,1475.61,1094.82,1479.19,1105.09Z" transform="translate(-160.82 -149.19)"/><path class="cls-11" d="M2050.59,953.19c17.87,5.81,18,20.19,17,35.14l-20.75,12.57C2041.09,984.45,2043.66,968.65,2050.59,953.19Z" transform="translate(-160.82 -149.19)"/><path class="cls-24" d="M255.76,1731.43H160.93l-.11-3.83h94.63Z" transform="translate(-160.82 -149.19)"/><path class="cls-1" d="M2036.49,755.19c-8.54.92-12.82-2.5-12.65-12.07.15-8.93,4.8-10.51,12.33-10.63,8.66-.14,13.56,2.27,13.23,12.07C2049.11,753.31,2044.4,755.62,2036.49,755.19Z" transform="translate(-160.82 -149.19)"/><path class="cls-1" d="M2010.89,743.72c1.12,10-5,11.43-13.08,11.59-8.87.18-12.8-2.94-12.59-12.28.2-8.85,4.9-10.41,12.22-10.43C2005.28,732.57,2011.94,733.3,2010.89,743.72Z" transform="translate(-160.82 -149.19)"/><path class="cls-1" d="M2085.38,743.44c.71,9.6-4.3,11.73-11.91,11.74-8.32,0-11.2-4-11.23-11.88,0-8.77,4.72-10.62,12.25-10.64C2082.76,732.63,2086.54,736,2085.38,743.44Z" transform="translate(-160.82 -149.19)"/><path class="cls-1" d="M1748.6,213.12c6.11-.23,11.2.51,11.35,8.59.13,7.43-3.61,9.89-10.37,9.83-6.18,0-11.15-1-11.45-8.84C1737.84,215.09,1741.92,212.83,1748.6,213.12Z" transform="translate(-160.82 -149.19)"/><path class="cls-25" d="M2587.8,1628.14c-12-4.6-25.24-6.78-34.32-17.22C2565.48,1615.54,2586.84,1601.54,2587.8,1628.14Z" transform="translate(-160.82 -149.19)"/><path class="cls-26" d="M2630,1731.07h-36.21C2605.77,1722.92,2617.79,1725.05,2630,1731.07Z" transform="translate(-160.82 -149.19)"/><path class="cls-27" d="M512.25,1715.55l17.41,8.44-43-.27C492.39,1712.29,506,1725.32,512.25,1715.55Z" transform="translate(-160.82 -149.19)"/><path class="cls-17" d="M1097,1157.37a35,35,0,0,0,17.49,8.92c19.76,24.55,45.67,11.59,69.5,11.37,10.48,14.31-10.14,11.59-9.69,23.31,3.36,4.3,10.86,3.58,18.24,3.21,4.93,2,12.72,1.61,11.51,9.77-.82,5.58-6.29,7.58-11.53,7.83-17.21.83-34.84,2.66-50-7.89-11.31-7.85-23.42-10.12-36.68-8.66l-12.18-1.3c-24.58,2.46-47.82-3.77-70.47-12-14.06-5.1-28.07-11.3-33.51-27.4-.34-1.35-.7-2.69-1.1-4,8.87-20.93,26.08-31.33,47-37.08.23,7.89,3.36,13,11.54,15.72C1063.82,1144.74,1080.32,1151.25,1097,1157.37Z" transform="translate(-160.82 -149.19)"/><path class="cls-11" d="M1014,1542.7c-10.42-5-3.21-12.66-1.18-17.56,11.62-28,13.18-55.34-2.29-82.41-3.64-7.86-.11-15.09,2.91-29l34,68.27c.31.63,1,1.62.72,2C1035.08,1502.51,1034.93,1528.65,1014,1542.7Z" transform="translate(-160.82 -149.19)"/><path class="cls-13" d="M2219.7,1655.42c-26.43-44.23-50.54-89.94-82.76-130.51-9.78-12.32-20.51-24-26-39.14l77.52-16.46c-7.1,4.72-8.32,10.3-3.5,17.67,29.43,45,42.62,95.78,53,147.63,1.09,5.46,4.51,10.44,6.85,15.65C2237.54,1657.35,2229.6,1661.15,2219.7,1655.42Z" transform="translate(-160.82 -149.19)"/><path class="cls-28" d="M2353.61,1723.93c-3.07-1.68-6.25-3.21-9.2-5.08-7.82-4.95-18.85-9.88-17.62-19.61,1.44-11.44,14.55-8.94,24-11.2-4.51-7.64-10.61-14.35-12.56-22.1-3.58-14.25,11.29-8.56,17-13.27-4.26-11-24.11-7.77-22.31-23,1.46-12.37,13.67-13,24.28-16.28-5.49-12.86-17.06-17.63-27.81-21.76-13.09-5-20.87-12-19.61-26.84.76-9,5.28-15.41,13.53-17.55,13.5-3.51,24.08,3,31.85,13.34,5.1,6.79,8.56,14.81,13.09,22.88,9.27-5.13,7.17-25.22,24.76-17.35,13.24,5.93,17.94,17.86,14.89,42.11,5.64-.91,8.12-5.53,11.29-9.31,34,2.63,39.43,25.38,16.15,67.17,10.6,5.86,26.22-12.12,32.8,4.33,6.34,15.86-5.82,28.26-16.08,39.59-1.44,1.59-2.6,3.43-3.89,5.16-4.91,8.32-14.92,4.41-21.42,8.93Z" transform="translate(-160.82 -149.19)"/><path class="cls-29" d="M2426.74,1724.07c6-5.83,13.92-6.83,21.43-8.93,4.44,10.6,18.8-3.81,22.43,8.88Z" transform="translate(-160.82 -149.19)"/><path class="cls-30" d="M1881.63,1157.92l31-2.08c.7-7.84-10.64-7.66-9-15.22,18.18-9.27,37.79,1.73,57.07-5.39,28.89-10.67,57.21-22.55,85.61-34.32l4.17-4.34c19.17-.45,37.56,14.16,43.43,34.49q-4.54,5.84-9.1,11.66l-8.92,4.9c-27.15,21.29-58.22,22.9-90.59,18l-21.53.57c-22.2-.57-42.57,12.66-65.22,8.58q-8.44-4.66-16.87-9.35C1881.66,1162.91,1881.65,1160.42,1881.63,1157.92Z" transform="translate(-160.82 -149.19)"/><path class="cls-5" d="M1985.3,1165.61c30.36-5.2,61.56-6.12,90.59-18,10.9,65.89-.73,130.32-17.9,193.09-11.65,42.58-47.28,63.4-90,70.76-16.14,2.78-13.55-9.7-12.68-18.23,2.45-24.21,6-48.3,9.21-72.43Q1974.85,1243.21,1985.3,1165.61Z" transform="translate(-160.82 -149.19)"/><path class="cls-3" d="M2219.7,1655.42l25.1-5.16c12.24,16.74,14.09,36.19,16.33,56.41-11.18-.71-9-11.47-15.36-15.31-14.13,4.22-6.51,25.05-21.16,29.07-9.16,2-17.25,15.42-27.8,2.62C2208.18,1701.77,2221.47,1681.14,2219.7,1655.42Z" transform="translate(-160.82 -149.19)"/><path class="cls-5" d="M989.61,1164.55c25.1,24,57.59,29.59,89.83,35.68,4.83.91,10.08,0,14.15,3.7-17.86,11.3-13.63,31.21-17.61,47.48-7.62,31.13-12.77,62.87-19.31,94.28-2.17,10.4-4.76,15.43-18.13,7.83-49.17-27.92-71.48-73.38-59.12-127.78C984,1205.61,986.28,1185,989.61,1164.55Z" transform="translate(-160.82 -149.19)"/><path class="cls-31" d="M1035.47,1123.45c-15.36,12.73-33.56,21.86-47,37.09-19.18-.73-18.82-20.82-29.63-29.83l-5-11.17c-4-19.18-17.07-36.83-8.95-58.08,4.17-10.9,7.12-22.46,20.57-25.34,14.94-3.2,26.75,2.18,35.82,14.23,3.85,5.11,8,10,12,15C1018.25,1085.64,1036.56,1100.86,1035.47,1123.45Z" transform="translate(-160.82 -149.19)"/><path class="cls-32" d="M2093.91,1131.06c-11.56-15.16-25.2-27.72-43.43-34.49,5.63-36,25.72-63.75,53.92-84.34,13.09-9.56,27.54-.64,36,13.43C2156.45,1052.13,2125,1123.32,2093.91,1131.06Z" transform="translate(-160.82 -149.19)"/></svg>