<svg id="Layer_1" data-name="Layer 1" xmlns="http://www.w3.org/2000/svg" viewBox="0 0 610.97 455.98"><defs><style>.cls-1{fill:#fefefe;}</style></defs><path class="cls-1" d="M795.41,671.67a16.07,16.07,0,0,1-4.3,6.51q-43,42.92-86,85.94a16,16,0,0,1-6.52,4.3c2.31-2.07,4.71-4,6.89-6.22q42.42-42.35,84.77-84.76C792.11,675.62,793.71,673.6,795.41,671.67Z" transform="translate(-184.44 -312.44)"/><path d="M795.41,665.68v6a16.07,16.07,0,0,1-4.3,6.51q-43,42.92-86,85.94a16,16,0,0,1-6.52,4.3h-6c-4.8-2.74-6.47-6.76-6.36-12.34.31-15.44,0-30.9.2-46.35.06-3.88-.89-5-4.9-5-23.93.13-47.85,1.24-71.78-.12-27-1.53-52.5-8-74.63-24.09-14-10.23-25.66-23-35.89-37.11-1.25-1.72-1.4-3-.25-4.84,14.1-22.93,25.06-47.42,35.89-72,.32-.74.74-1.43,1.4-2.7,6.55,13.11,13,25.64,21.14,37.28,9.21,13.22,20.72,23.13,36.3,28a68.1,68.1,0,0,0,20.62,2.88c22.44,0,44.88-.12,67.31.13,4.24,0,4.81-1.47,4.77-5.12-.17-15.78,0-31.57-.1-47.36,0-4.43.65-8.43,5.27-10.27s8.4-.17,11.71,3.14q44.24,44.24,88.47,88.5A47.21,47.21,0,0,1,795.41,665.68Z" transform="translate(-184.44 -312.44)"/><path d="M472.26,447.72c-13,20.84-23,43.23-32.86,65.69-.73,1.66-1.48,3.31-2.56,5.75-6.5-13-13-25.31-20.79-36.91-14.44-21.46-34.36-31.88-60.12-31.7-19.28.13-38.55.05-57.83,0a23,23,0,0,1-4.43-.37v.62a8.55,8.55,0,0,0-.33,2.88c.27,15.78.06,31.57.14,47.36,0,4.42-.61,8.39-5.2,10.32s-8.4.24-11.69-3.05q-44.28-44.24-88.51-88.49a51.44,51.44,0,0,1-3.64-4.5v-6c3.62-4.94,8.2-9,12.49-13.28q39.47-39.51,79-79a16.68,16.68,0,0,1,4.59-3.76c6.32-2.88,12.85,1.46,12.91,8.9.13,16.28.21,32.57-.06,48.85a8.74,8.74,0,0,0,.33,2.92v4.38a19.55,19.55,0,0,1,4-.36q31.65-.07,63.31.1c46.9.32,82.69,21.79,110.81,58.08C475,440.38,475.07,443.21,472.26,447.72Z" transform="translate(-184.44 -312.44)"/><path d="M685.18,301.84Z" transform="translate(-184.44 -312.44)"/><path d="M685.18,381.68V447a3.61,3.61,0,0,1-2.95,3.55h-1l-8.43.08c-18.47.18-36.94.35-55.4-.08-25.41-.59-44.85,9.68-59.35,30.23-12.9,18.27-22.06,38.48-31,58.8-12.52,28.32-24.16,57-40,83.81-13.31,22.53-29.4,42.73-50.72,58.15-20.14,14.57-43.17,22-67.86,22.93-23.9.89-47.86.34-71.8.33-6.57,0-9.86-3.22-9.89-9.77q-.14-26.43,0-52.85c0-6.92,3.55-10,11.38-10,19.78-.07,39.57,0,59.35,0a87.6,87.6,0,0,0,18.81-1.78c17.57-3.83,29.49-15.33,39.43-29.24,13.4-18.72,22.47-39.77,31.67-60.71,13.27-30.17,25.77-60.71,43.52-88.69,11.86-18.68,26-35.47,43.66-48.73,24.27-18.2,52.29-25.08,82.3-25,14.29,0,28.59,0,42.89,0q10.72,0,21.44.09h1.07A3.7,3.7,0,0,1,685.18,381.68Z" transform="translate(-184.44 -312.44)"/><path d="M682.08,450.49h.15a3.52,3.52,0,0,1-.66.06h-8.8l8.43-.08Z" transform="translate(-184.44 -312.44)"/><path d="M681.19,378.09q-10.71-.09-21.44-.09h21.74a3.87,3.87,0,0,1,.77.08h-1.07Z" transform="translate(-184.44 -312.44)"/></svg>