<svg id="_404" data-name=" 404" xmlns="http://www.w3.org/2000/svg" viewBox="0 0 1762.51 336.15"><defs><style>.cls-1{fill:#fff;}</style></defs><path class="cls-1" d="M109.44,98.66v28.23q-14.25,7.7-24.25,10.52a80,80,0,0,1-21.61,2.82,90,90,0,0,1-29.87-4.82q-10.79-3.72-17-9.34T5.26,109.38A56.73,56.73,0,0,1,0,84.66V69.46A59.56,59.56,0,0,1,12.84,31.89Q30.08,9.51,59.75,9.51a73.34,73.34,0,0,1,16.37,1.75,64.54,64.54,0,0,1,14.74,5.23q4.2-3.79,8.21-3.8a9.62,9.62,0,0,1,7.49,3.19q2.88,3.18,2.88,10.78V40.31q0,7.59-2.93,10.83A9.8,9.8,0,0,1,99,54.37a9.57,9.57,0,0,1-6.36-2.26c-1.37-1-2.51-3.3-3.44-6.82s-2-5.91-3.13-7.14q-2.77-3-9.8-5.28a49.87,49.87,0,0,0-15.76-2.31q-12.53,0-21.76,5.13-6.57,3.78-12.12,13.24a39.82,39.82,0,0,0-5.54,20.53v15.2q0,16.94,9.8,25.71T62,119.15a62.91,62.91,0,0,0,26.38-5.44v-15H66.94q-7.61,0-10.83-2.93a10.65,10.65,0,0,1-.25-15l.25-.24q3.22-2.93,10.83-2.93l37.36.1q7.61,0,10.83,2.88a9.65,9.65,0,0,1,3.24,7.59,10.09,10.09,0,0,1-2.21,6.47A13.07,13.07,0,0,1,109.44,98.66Z" transform="translate(0.01 -4.01)"/><path class="cls-1" d="M201.52,137.15v-4.92a68.51,68.51,0,0,1-17.45,6.31,81.75,81.75,0,0,1-17.35,2.1q-16.93,0-27.51-9t-10.58-19.86q0-13.26,13.5-24.59t37.32-11.34a137.2,137.2,0,0,1,22.07,2v-5a9.13,9.13,0,0,0-4.06-7.7q-4-3-15.45-3-9.33,0-24.22,3.7a40,40,0,0,1-8.63,1.33,9.53,9.53,0,0,1-7.13-3,10.72,10.72,0,0,1-2.93-7.75,9.71,9.71,0,0,1,1-4.62A7.94,7.94,0,0,1,143,48.68a33.11,33.11,0,0,1,7.7-2.83,141.25,141.25,0,0,1,15.91-3.44,95,95,0,0,1,14.68-1.29q19.62,0,30.44,8.47t10.83,23.15v43.33h3.66q7.59,0,10.83,2.91a9.91,9.91,0,0,1,3.17,7.68,9.74,9.74,0,0,1-3.23,7.55q-3.24,2.91-10.83,2.92Zm0-37.67A121.9,121.9,0,0,0,178.19,97q-12.83,0-22.07,6.27-5.75,4-5.74,8.11a5.58,5.58,0,0,0,2.77,4.82q5.13,3.39,14.06,3.39a58.85,58.85,0,0,0,17.2-3,63.7,63.7,0,0,0,17.09-8.11Z" transform="translate(0.01 -4.01)"/><path class="cls-1" d="M276.25,43.94v6A34.12,34.12,0,0,1,285.54,43a22.63,22.63,0,0,1,9.6-1.9,20.09,20.09,0,0,1,9.14,2.26,32.14,32.14,0,0,1,8.82,6.77,40.73,40.73,0,0,1,11-6.72,30.77,30.77,0,0,1,11.45-2.21q11.7,0,19,6.26,9.65,8.19,9.64,21.52v47.12q6.57,0,9.75,3a10.47,10.47,0,0,1,.07,15.1q-3.18,2.91-10.78,2.92h-20V70.73c0-3.21-.58-5.44-1.74-6.67a7,7,0,0,0-5.34-1.85,12,12,0,0,0-6.47,1.85q-3.8,2.56-9.24,9.65v42.4q6.57,0,9.76,3a10.6,10.6,0,0,1,0,15.14q-3.19,2.91-10.78,2.92h-20V70.73q0-4.71-1.8-6.62a7.07,7.07,0,0,0-5.39-1.9,13.28,13.28,0,0,0-7.29,2.31q-3.58,2.31-8.62,9.19v42.4q6.57,0,9.8,3a9.84,9.84,0,0,1,3.17,7.55,9.74,9.74,0,0,1-3.24,7.55q-3.23,2.91-10.83,2.92h-19q-7.59,0-10.83-2.92a10.62,10.62,0,0,1-.25-15l.2-.19q3.18-2.94,9.86-2.92V65q-6.67,0-9.86-3a10,10,0,0,1-3.18-7.6,9.69,9.69,0,0,1,3.23-7.54q3.24-2.94,10.83-2.93Z" transform="translate(0.01 -4.01)"/><path class="cls-1" d="M487.72,101.22H401.39A27,27,0,0,0,413,114.47q8.37,5,22.63,5,11.71,0,31.11-5,8-2.06,11.09-2.06a9.44,9.44,0,0,1,7.08,3,10.39,10.39,0,0,1,2.87,7.49,9.18,9.18,0,0,1-3.08,7q-4.11,3.81-20,7.24a145.84,145.84,0,0,1-30.6,3.44q-25.25,0-40.39-14.27A46.3,46.3,0,0,1,378.61,91.2Q378.61,69,395,55.12a56.57,56.57,0,0,1,37.73-13.91,60,60,0,0,1,23.56,4.52q10.73,4.5,16,9.75a61.46,61.46,0,0,1,12.22,18.78,46.32,46.32,0,0,1,3.28,18.07Zm-23.3-21a33,33,0,0,0-12.63-13.56q-7.8-4.47-18.58-4.47a36.45,36.45,0,0,0-18.48,4.47A33.5,33.5,0,0,0,402,80.16Z" transform="translate(0.01 -4.01)"/><path class="cls-1" d="M720.24,18.07a13.79,13.79,0,0,1,4.26-4A10.28,10.28,0,0,1,737,15.92q2.93,3.18,2.92,10.78V44.56q0,7.59-2.92,10.83a9.8,9.8,0,0,1-7.55,3.23,9.62,9.62,0,0,1-6.77-2.36q-2.57-2.37-3.8-8.83A12.84,12.84,0,0,0,716,40.76a29.1,29.1,0,0,0-11.76-7.39,43.26,43.26,0,0,0-15.14-2.77,37,37,0,0,0-17.35,4.1q-7.9,4.11-14,13.35t-6.06,22V83.66a33,33,0,0,0,11,25.36q11,10.14,30.64,10.16,11.7,0,19.81-3.18c3.15-1.24,6.51-3.66,10.06-7.29a24.44,24.44,0,0,1,5.14-4.26,8.8,8.8,0,0,1,4.21-1,10.11,10.11,0,0,1,7.39,3.18,10.24,10.24,0,0,1,3.18,7.5q0,4.31-4.31,9.24a42.93,42.93,0,0,1-16,11.29,75.25,75.25,0,0,1-29.26,5.54,72.68,72.68,0,0,1-33.67-7.7q-12.11-6.15-20.63-19.45a52.74,52.74,0,0,1-8.52-29V69.81a63.59,63.59,0,0,1,7.65-30.64,53.85,53.85,0,0,1,21.2-21.92,57.2,57.2,0,0,1,28.74-7.7,65.71,65.71,0,0,1,17.09,2.11A53.42,53.42,0,0,1,720.24,18.07Z" transform="translate(0.01 -4.01)"/><path class="cls-1" d="M868.06,92.29a45.45,45.45,0,0,1-6.73,23.46q-6.72,11.34-20,18.07a60.62,60.62,0,0,1-55.28.1q-13.14-6.63-20-18a45.38,45.38,0,0,1-6.88-23.81,50.64,50.64,0,0,1,27-43.94,57.13,57.13,0,0,1,55,.15,48.66,48.66,0,0,1,20.07,19.2A50,50,0,0,1,868.06,92.29Zm-21,.1q0-10.15-7.28-18.68-10-11.49-26.18-11.5-14.28,0-23.82,9.14T780.19,92.5q0,9.84,9.65,18.42t23.71,8.58q14.16,0,23.81-8.58T847,92.39Z" transform="translate(0.01 -4.01)"/><path class="cls-1" d="M907.07,43.94v6A34.12,34.12,0,0,1,916.36,43a22.63,22.63,0,0,1,9.6-1.9,20,20,0,0,1,9.13,2.26,32,32,0,0,1,8.83,6.77,40.73,40.73,0,0,1,11-6.72,30.72,30.72,0,0,1,11.44-2.21q11.7,0,19,6.26Q995,55.69,995,69v47.12q6.57,0,9.76,3a10.6,10.6,0,0,1,0,15.14q-3.19,2.91-10.78,2.92H974V70.73c0-3.21-.58-5.44-1.75-6.67a7,7,0,0,0-5.33-1.85,11.85,11.85,0,0,0-6.47,1.85q-3.8,2.56-9.24,9.65v42.4q6.57,0,9.75,3a9.92,9.92,0,0,1,3.24,7.55,9.82,9.82,0,0,1-3.19,7.55q-3.18,2.91-10.78,2.92h-20V70.73q0-4.71-1.8-6.62a7.1,7.1,0,0,0-5.39-1.9,13.28,13.28,0,0,0-7.29,2.31q-3.59,2.31-8.62,9.19v42.4q6.57,0,9.8,3a9.84,9.84,0,0,1,3.24,7.59,9.74,9.74,0,0,1-3.24,7.55q-3.23,2.91-10.83,2.92h-19c-5.07,0-8.67-1-10.83-2.92a10.61,10.61,0,0,1-.2-15l.2-.19q3.18-2.94,9.85-2.92V65q-6.68,0-9.85-3a10,10,0,0,1-3.18-7.6,9.69,9.69,0,0,1,3.23-7.54c2.16-2,5.76-2.93,10.83-2.93Z" transform="translate(0.01 -4.01)"/><path class="cls-1" d="M1039.6,125.55V160h12.59q7.61,0,10.83,2.93a9.82,9.82,0,0,1,3.24,7.65,9.72,9.72,0,0,1-3.24,7.54q-3.23,2.93-10.83,2.93h-37.26q-7.6,0-10.83-2.93a10.49,10.49,0,0,1-.36-14.84l.36-.35q3.28-2.92,10.78-2.93h3.59V65h-3.59q-7.61,0-10.83-2.93a9.8,9.8,0,0,1-3.23-7.65,9.66,9.66,0,0,1,3.23-7.54q3.23-2.94,10.83-2.93h24.64v7.19a57.5,57.5,0,0,1,15.29-7.5A54.07,54.07,0,0,1,1071,41.22q21.56,0,36.75,14.63T1123,89.37q0,20.82-18,34.38a54.78,54.78,0,0,1-33.77,11.3,56.29,56.29,0,0,1-16-2.36A68.67,68.67,0,0,1,1039.6,125.55ZM1102,89.42q0-4.41-3.49-11.24a29.12,29.12,0,0,0-10.73-11.4,31.05,31.05,0,0,0-17-4.57q-15.7,0-24.94,11.81-6.27,8.1-6.26,15.6,0,8.41,9,16.38t22.22,8q13.35,0,22.28-7.9T1102,89.42Z" transform="translate(0.01 -4.01)"/><path class="cls-1" d="M1202.41,4v112.1h25.25q7.6,0,10.83,2.92a10.53,10.53,0,0,1,0,15.2q-3.23,2.91-10.83,2.92h-71.55q-7.59,0-10.83-2.92a9.8,9.8,0,0,1-3.23-7.65,9.67,9.67,0,0,1,3.23-7.55q3.24-2.94,10.83-2.92h25.25V25.05h-16.93q-7.5,0-10.78-2.92a10.49,10.49,0,0,1-.39-14.82l.39-.38Q1156.86,4,1164.48,4Z" transform="translate(0.01 -4.01)"/><path class="cls-1" d="M1370.86,101.22h-86.33a27.1,27.1,0,0,0,11.66,13.25q8.37,5,22.64,5,11.7,0,31.1-5,8-2.06,11.09-2.06a9.44,9.44,0,0,1,7.08,3,10.34,10.34,0,0,1,2.88,7.49,9.21,9.21,0,0,1-3.08,7q-4.11,3.81-20,7.24a145.74,145.74,0,0,1-30.59,3.44q-25.26,0-40.4-14.27a46.34,46.34,0,0,1-15.14-35.11q0-22.17,16.38-36.08a56.55,56.55,0,0,1,37.72-13.91,59.85,59.85,0,0,1,23.56,4.52q10.72,4.5,16,9.75a61.46,61.46,0,0,1,12.22,18.78,46.32,46.32,0,0,1,3.28,18.07Zm-23.3-21a32.85,32.85,0,0,0-12.62-13.5q-7.82-4.47-18.58-4.47a36.45,36.45,0,0,0-18.48,4.47,33.5,33.5,0,0,0-12.73,13.5Z" transform="translate(0.01 -4.01)"/><path class="cls-1" d="M1439,65v42.19q0,6.75,2.77,8.93,4.31,3.39,15.4,3.39a65.4,65.4,0,0,0,29.77-6.88c3.49-1.78,6.22-2.67,8.21-2.67a9.64,9.64,0,0,1,7.13,3.08,10.27,10.27,0,0,1,3,7.49,9.31,9.31,0,0,1-3.28,7.09q-5,4.8-19.87,8.88t-25,4q-19.62,0-29.41-8.47t-9.81-20.79V65h-7.59q-7.61,0-10.83-2.93a9.81,9.81,0,0,1-3.24-7.65,9.65,9.65,0,0,1,3.24-7.54q3.23-2.94,10.83-2.93h7.59v-19q0-7.59,2.93-10.83a9.79,9.79,0,0,1,7.65-3.23,9.63,9.63,0,0,1,7.54,3.23q2.93,3.24,2.93,10.83v19h38.9q7.6,0,10.83,2.93a9.83,9.83,0,0,1,3.24,7.64,9.74,9.74,0,0,1-3.24,7.55Q1485.5,65,1477.89,65Z" transform="translate(0.01 -4.01)"/><path class="cls-1" d="M1623.19,101.22h-86.33a27,27,0,0,0,11.65,13.25q8.37,5,22.64,5,11.7,0,31.1-5,8-2.06,11.09-2.06a9.44,9.44,0,0,1,7.08,3,10.34,10.34,0,0,1,2.88,7.49,9.21,9.21,0,0,1-3.08,7q-4.11,3.81-20,7.24a145.74,145.74,0,0,1-30.59,3.44q-25.26,0-40.4-14.27a46.34,46.34,0,0,1-15.14-35.11q0-22.17,16.37-36.08a56.54,56.54,0,0,1,37.73-13.95,59.85,59.85,0,0,1,23.56,4.52q10.73,4.5,16,9.75A61.46,61.46,0,0,1,1620,74.22a46.32,46.32,0,0,1,3.28,18.07Zm-23.3-21a32.93,32.93,0,0,0-12.63-13.5q-7.8-4.47-18.58-4.47a36.43,36.43,0,0,0-18.49,4.41,33.47,33.47,0,0,0-12.72,13.5Z" transform="translate(0.01 -4.01)"/><path class="cls-1" d="M1744.84,4v112.1h3.59q7.5,0,10.78,2.92a10.48,10.48,0,0,1,.43,14.81l-.38.39q-3.23,2.91-10.83,2.92h-24.64V132a62,62,0,0,1-15,6.36,61.33,61.33,0,0,1-16.28,2.15q-23.7,0-38.18-13.7t-14.51-34.17A49.49,49.49,0,0,1,1655,56.22q15.18-15.09,37-15.09a52.53,52.53,0,0,1,16.12,2.53,64.25,64.25,0,0,1,15.6,7.55V25.05h-3.6q-7.59,0-10.83-2.92a9.74,9.74,0,0,1-3.23-7.55,9.84,9.84,0,0,1,3.23-7.65Q1712.6,4,1720.19,4Zm-21,89.31a29.85,29.85,0,0,0-9.13-22.07,32.09,32.09,0,0,0-44.66,0A29.47,29.47,0,0,0,1660.87,93a24.53,24.53,0,0,0,8.21,19q8.2,7.45,23.2,7.45t23.2-7.45a24.08,24.08,0,0,0,8.31-18.69Z" transform="translate(0.01 -4.01)"/><path class="cls-1" d="M535.08,308v21.65a96.19,96.19,0,0,1-18.59,8A61.12,61.12,0,0,1,500,339.82a69,69,0,0,1-22.87-3.69,37.29,37.29,0,0,1-13-7.15q-4.75-4.32-8.76-12.77a43.72,43.72,0,0,1-4-18.9V285.66a45.64,45.64,0,0,1,9.82-28.77q13.22-17.13,35.92-17.13a56.1,56.1,0,0,1,12.53,1.33,49,49,0,0,1,11.28,4c2.15-1.94,4.25-2.9,6.29-2.9a7.36,7.36,0,0,1,5.74,2.43c1.46,1.63,2.2,4.38,2.2,8.25v10.45c0,3.88-.74,6.64-2.24,8.3a7.45,7.45,0,0,1-5.78,2.47,7.29,7.29,0,0,1-4.87-1.73q-1.56-1.17-2.63-5.22c-.7-2.7-1.5-4.53-2.4-5.47q-2.13-2.26-7.51-4a38.23,38.23,0,0,0-12.06-1.77A33.69,33.69,0,0,0,481,259.83q-5,2.91-9.28,10.14a30.67,30.67,0,0,0-4.24,15.71v11.64q0,13,7.51,19.68t23.85,6.72a48.25,48.25,0,0,0,20.2-4.17V308H502.56c-3.88,0-6.64-.74-8.29-2.24a8.15,8.15,0,0,1-.18-11.52l.18-.19q2.49-2.24,8.29-2.22l28.61.06c3.87,0,6.64.74,8.29,2.2a7.42,7.42,0,0,1,2.47,5.82,7.61,7.61,0,0,1-1.69,5A9.94,9.94,0,0,1,535.08,308Z" transform="translate(0.01 -4.01)"/><path class="cls-1" d="M587.73,266.13v10.06q10.14-7.32,16-9.75a28.59,28.59,0,0,1,11-2.44q7.86,0,15.24,5.82,5,3.93,5,8a8,8,0,0,1-2.39,5.85,7.89,7.89,0,0,1-5.78,2.4c-2,0-4.09-1-6.29-3s-4.15-3-5.89-3q-3.36,0-10.1,4.24A160.56,160.56,0,0,0,587.74,297v24.28h23c3.88,0,6.65.74,8.29,2.24a7.53,7.53,0,0,1,2.48,5.86,7.43,7.43,0,0,1-2.48,5.77c-1.64,1.5-4.41,2.25-8.29,2.25H562.09q-5.82,0-8.29-2.25a8.09,8.09,0,0,1-.2-11.43l.2-.2q2.49-2.24,8.29-2.24h9.58V282.19h-5.81c-3.88,0-6.64-.75-8.3-2.24a7.58,7.58,0,0,1-2.47-5.86,7.43,7.43,0,0,1,2.47-5.77c1.65-1.5,4.42-2.24,8.3-2.24Z" transform="translate(0.01 -4.01)"/><path class="cls-1" d="M728.09,310H662a20.75,20.75,0,0,0,8.92,10.14q6.41,3.83,17.33,3.85,9,0,23.81-3.85a40.34,40.34,0,0,1,8.49-1.58,7.24,7.24,0,0,1,5.42,2.28,7.87,7.87,0,0,1,2.2,5.74,7,7,0,0,1-2.36,5.35q-3.13,2.88-15.32,5.54a111.78,111.78,0,0,1-23.42,2.63q-19.34,0-30.93-10.92a35.56,35.56,0,0,1-11.59-26.88q0-17,12.54-27.63A43.29,43.29,0,0,1,686,264a45.89,45.89,0,0,1,18,3.46q8.22,3.45,12.23,7.46a47.28,47.28,0,0,1,9.35,14.38,35.4,35.4,0,0,1,2.51,13.83Zm-17.84-16.11a25.07,25.07,0,0,0-9.66-10.34,31.19,31.19,0,0,0-28.37,0,25.55,25.55,0,0,0-9.75,10.34Z" transform="translate(0.01 -4.01)"/><path class="cls-1" d="M798.74,337.49v-3.78a52,52,0,0,1-13.36,4.83,61.21,61.21,0,0,1-13.28,1.61q-13,0-21.06-6.88T743,318.07q0-10.12,10.33-18.82t28.57-8.68a105,105,0,0,1,16.89,1.56v-3.85a7,7,0,0,0-3.1-5.9q-3.09-2.28-11.83-2.27-7.15,0-18.54,2.82a29.52,29.52,0,0,1-6.61,1,7.29,7.29,0,0,1-5.46-2.32,8.21,8.21,0,0,1-2.24-5.94,7.48,7.48,0,0,1,.79-3.53,6.27,6.27,0,0,1,2.2-2.4,26.34,26.34,0,0,1,5.89-2.16A112.88,112.88,0,0,1,772,265a73.13,73.13,0,0,1,11.24-1q15,0,23.3,6.49t8.3,17.72v33.16h2.75c3.87,0,6.64.75,8.29,2.24a7.55,7.55,0,0,1,2.47,5.86,7.36,7.36,0,0,1-2.47,5.77c-1.65,1.5-4.42,2.25-8.29,2.25Zm0-28.85a92.9,92.9,0,0,0-17.84-1.88A29.34,29.34,0,0,0,764,311.55c-2.94,2-4.4,4.11-4.4,6.21a4.28,4.28,0,0,0,2.12,3.69q3.93,2.6,10.77,2.59a44.63,44.63,0,0,0,13.16-2.28,47.76,47.76,0,0,0,13.08-6.21Z" transform="translate(0.01 -4.01)"/><path class="cls-1" d="M876.86,282.24v32.3q0,5.16,2.12,6.83c2.21,1.73,6.13,2.6,11.79,2.6a50,50,0,0,0,22.79-5.27,15.1,15.1,0,0,1,6.29-2,7.38,7.38,0,0,1,5.46,2.35,7.82,7.82,0,0,1,2.32,5.73,7.08,7.08,0,0,1-2.51,5.44q-3.84,3.67-15.21,6.79t-19.14,3.11q-15,0-22.51-6.49a20.24,20.24,0,0,1-7.51-15.91V282.28h-5.81q-5.82,0-8.29-2.24a7.59,7.59,0,0,1-2.48-5.86,7.41,7.41,0,0,1,2.48-5.77c1.65-1.5,4.41-2.24,8.29-2.24h5.81V251.63c0-3.88.75-6.65,2.24-8.29a7.55,7.55,0,0,1,5.86-2.48,7.41,7.41,0,0,1,5.77,2.48c1.5,1.65,2.24,4.41,2.24,8.29v14.54h29.81c3.87,0,6.64.74,8.29,2.24a8.06,8.06,0,0,1,.24,11.39L915,280c-1.65,1.49-4.42,2.24-8.29,2.24Z" transform="translate(0.01 -4.01)"/><path class="cls-1" d="M1104.3,258.35v48.72q0,9.18-3.06,14.62A33.79,33.79,0,0,1,1087.6,335a38.64,38.64,0,0,1-18.74,4.87q-12.66,0-34.5-10.68v-26.5c0-3.88.74-6.64,2.24-8.29a8.06,8.06,0,0,1,11.4-.24l.23.24c1.5,1.64,2.24,4.41,2.24,8.29v15.8q11.07,5.25,18.94,5.26a22,22,0,0,0,8.64-1.92,18.28,18.28,0,0,0,6.76-4.6,13.93,13.93,0,0,0,3-5.27,33.23,33.23,0,0,0,.39-6.75V258.34h-19.53q-5.82,0-8.29-2.24a8.16,8.16,0,0,1-.18-11.53l.18-.18c1.65-1.5,4.41-2.24,8.29-2.24l45.11.08c3.88,0,6.65.73,8.29,2.2a7.33,7.33,0,0,1,2.48,5.81,7.55,7.55,0,0,1-2.48,5.86c-1.64,1.49-4.41,2.24-8.29,2.24Z" transform="translate(0.01 -4.01)"/><path class="cls-1" d="M1212.44,303.14a34.82,34.82,0,0,1-5.15,18A36.31,36.31,0,0,1,1192,335a46.39,46.39,0,0,1-42.32.07,36.6,36.6,0,0,1-15.33-13.79,34.79,34.79,0,0,1-5.26-18.24,38.76,38.76,0,0,1,20.7-33.63,43.76,43.76,0,0,1,42.13.12,37.42,37.42,0,0,1,15.36,14.69A38.26,38.26,0,0,1,1212.44,303.14Zm-16.11.08a21.51,21.51,0,0,0-5.58-14.31q-7.62-8.79-20-8.8a25.34,25.34,0,0,0-18.23,7q-7.29,7-7.31,16.19,0,7.54,7.38,14.11a26.35,26.35,0,0,0,18.16,6.56q10.86,0,18.23-6.56t7.35-14.19Z" transform="translate(0.01 -4.01)"/><path class="cls-1" d="M1246.86,235.55v36.16a48.48,48.48,0,0,1,12-5.78,40.17,40.17,0,0,1,12.3-1.93,38.7,38.7,0,0,1,28.37,11.56,37.87,37.87,0,0,1,11.63,27.9,34.55,34.55,0,0,1-11.08,26.13q-11.08,10.47-29.24,10.49a47,47,0,0,1-12.42-1.65,49.93,49.93,0,0,1-11.55-4.87v3.93H1228q-5.82,0-8.29-2.25a7.52,7.52,0,0,1-2.48-5.85,7.4,7.4,0,0,1,2.52-5.78q2.52-2.24,8.25-2.24h2.75V251.66H1228q-5.82,0-8.29-2.24a7.59,7.59,0,0,1-2.48-5.86,7.46,7.46,0,0,1,2.48-5.78c1.66-1.5,4.42-2.24,8.29-2.24ZM1295,303.93a22.78,22.78,0,0,0-7-16.9,24.58,24.58,0,0,0-34.18,0,22.55,22.55,0,0,0-7,16.66,18.87,18.87,0,0,0,6.29,14.58q6.3,5.7,17.76,5.7t17.8-5.7A18.44,18.44,0,0,0,1295,303.93Z" transform="translate(0.01 -4.01)"/></svg>